%FSLAX34Y34*%
%MOMM*%
%LNCOPPER_BOTTOM*%
G71*
G01*
%ADD10C,0.222*%
%ADD11C,2.100*%
%ADD12C,1.900*%
%ADD13C,0.500*%
%ADD14C,0.700*%
%ADD15C,1.520*%
%ADD16C,0.400*%
%ADD17C,0.300*%
%LPD*%
G54D10*
X-55333Y493890D02*
X-59333Y491668D01*
X-60667Y489445D01*
X-60667Y485001D01*
G54D10*
X-50000Y485001D02*
X-50000Y502779D01*
X-56667Y502779D01*
X-59333Y501668D01*
X-60667Y499445D01*
X-60667Y497223D01*
X-59333Y495001D01*
X-56667Y493890D01*
X-50000Y493890D01*
G54D10*
X-65556Y488334D02*
X-66889Y486112D01*
X-69556Y485001D01*
X-72223Y485001D01*
X-74889Y486112D01*
X-76223Y488334D01*
X-76223Y490557D01*
X-74889Y492779D01*
X-72223Y493890D01*
X-69556Y493890D01*
X-66889Y495001D01*
X-65556Y497223D01*
X-65556Y499445D01*
X-66889Y501668D01*
X-69556Y502779D01*
X-72223Y502779D01*
X-74889Y501668D01*
X-76223Y499445D01*
G54D10*
X-86445Y485001D02*
X-86445Y502779D01*
G54D10*
X-81112Y502779D02*
X-91779Y502779D01*
X39850Y304650D02*
G54D11*
D03*
X39850Y279250D02*
G54D11*
D03*
X39850Y253850D02*
G54D11*
D03*
X39850Y228450D02*
G54D11*
D03*
X39850Y203050D02*
G54D11*
D03*
X39850Y177650D02*
G54D11*
D03*
X39850Y152250D02*
G54D11*
D03*
X39850Y126850D02*
G54D11*
D03*
X268450Y304650D02*
G54D11*
D03*
X268450Y279250D02*
G54D12*
D03*
X268450Y253850D02*
G54D12*
D03*
X268450Y228450D02*
G54D11*
D03*
X268450Y203050D02*
G54D11*
D03*
X268450Y177650D02*
G54D11*
D03*
X268450Y152250D02*
G54D11*
D03*
X268450Y126850D02*
G54D11*
D03*
X125016Y355600D02*
G54D12*
D03*
X231378Y355600D02*
G54D12*
D03*
G54D13*
X231378Y355600D02*
X244872Y369094D01*
X244872Y417513D01*
X254794Y427434D01*
X472281Y427434D01*
X482997Y416719D01*
X482997Y381000D01*
X494903Y369094D01*
G54D13*
X127000Y355600D02*
X111125Y371475D01*
X91281Y371475D01*
X75406Y355600D01*
X12700Y355600D01*
X6350Y349250D01*
X6350Y71450D01*
X27150Y50650D01*
X85875Y50650D01*
X106362Y30163D01*
X106362Y6350D01*
X241300Y7144D01*
G54D13*
X268450Y152250D02*
X266700Y152400D01*
X241300Y127000D01*
X241300Y7144D01*
G36*
X409259Y306306D02*
X439259Y306306D01*
X439259Y276306D01*
X409259Y276306D01*
X409259Y306306D01*
G37*
G36*
X553722Y306306D02*
X583722Y306306D01*
X583722Y276306D01*
X553722Y276306D01*
X553722Y306306D01*
G37*
G36*
X553722Y91994D02*
X583722Y91994D01*
X583722Y61994D01*
X553722Y61994D01*
X553722Y91994D01*
G37*
G36*
X409259Y334881D02*
X439259Y334881D01*
X439259Y304881D01*
X409259Y304881D01*
X409259Y334881D01*
G37*
G36*
X553722Y334881D02*
X583722Y334881D01*
X583722Y304881D01*
X553722Y304881D01*
X553722Y334881D01*
G37*
G54D13*
X39850Y126850D02*
X15081Y127000D01*
X15081Y335756D01*
X23019Y343694D01*
X89694Y343694D01*
X101600Y355600D01*
X571897Y357981D02*
G54D14*
D03*
G54D13*
X494903Y369094D02*
X604838Y369094D01*
X619522Y354409D01*
X598091Y96044D02*
G54D11*
D03*
X598091Y121444D02*
G54D11*
D03*
X598091Y146844D02*
G54D11*
D03*
X598091Y172244D02*
G54D11*
D03*
X598091Y197644D02*
G54D11*
D03*
X598091Y223044D02*
G54D11*
D03*
X598091Y248444D02*
G54D11*
D03*
X598091Y273844D02*
G54D11*
D03*
G54D13*
X424259Y288330D02*
X437356Y274241D01*
X437301Y232013D01*
X437301Y173673D01*
X437301Y115332D01*
X437356Y39291D01*
X432197Y29766D01*
G54D13*
X619522Y354409D02*
X619522Y280987D01*
X612378Y273843D01*
X598091Y273843D01*
G54D13*
X571897Y357981D02*
X572294Y321072D01*
X571103Y319881D01*
G54D13*
X570309Y89297D02*
X510778Y29766D01*
X457597Y29766D01*
G36*
X553722Y117394D02*
X583722Y117394D01*
X583722Y87394D01*
X553722Y87394D01*
X553722Y117394D01*
G37*
X99616Y355600D02*
G54D12*
D03*
X457597Y29766D02*
G54D11*
D03*
G36*
X47450Y312250D02*
X47450Y297050D01*
X32250Y297050D01*
X32250Y312250D01*
X47450Y312250D01*
G37*
X39850Y279250D02*
G54D15*
D03*
X39850Y253850D02*
G54D15*
D03*
X39850Y228450D02*
G54D15*
D03*
X39850Y203050D02*
G54D15*
D03*
X39850Y177650D02*
G54D15*
D03*
X39850Y152250D02*
G54D15*
D03*
X39850Y126850D02*
G54D15*
D03*
G36*
X276050Y312250D02*
X276050Y297050D01*
X260850Y297050D01*
X260850Y312250D01*
X276050Y312250D01*
G37*
X268450Y279250D02*
G54D15*
D03*
X268450Y253850D02*
G54D15*
D03*
X268450Y228450D02*
G54D15*
D03*
X268450Y203050D02*
G54D15*
D03*
X268450Y177650D02*
G54D15*
D03*
X268450Y152250D02*
G54D15*
D03*
X268450Y126850D02*
G54D15*
D03*
X39850Y279250D02*
G54D14*
D03*
G36*
X605691Y281443D02*
X605691Y266243D01*
X590491Y266243D01*
X590491Y281443D01*
X605691Y281443D01*
G37*
X598091Y248444D02*
G54D15*
D03*
X598091Y223044D02*
G54D15*
D03*
X598091Y197644D02*
G54D15*
D03*
X598091Y172244D02*
G54D15*
D03*
X598091Y146844D02*
G54D15*
D03*
X598091Y121444D02*
G54D15*
D03*
X598091Y96044D02*
G54D15*
D03*
X505619Y371078D02*
G54D14*
D03*
G54D13*
X125016Y355600D02*
X125016Y341313D01*
X130572Y335756D01*
X244078Y335756D01*
X253206Y344884D01*
X253206Y413147D01*
X259159Y419100D01*
G54D13*
X259159Y419100D02*
X442119Y419100D01*
X457994Y403225D01*
X457994Y353616D01*
X424259Y319881D01*
X300038Y275109D02*
G54D14*
D03*
X354666Y275745D02*
G54D14*
D03*
X409832Y275348D02*
G54D14*
D03*
G54D16*
X300038Y275109D02*
X354030Y275109D01*
X354666Y275745D01*
X409435Y275745D01*
X409832Y275348D01*
X427748Y275348D01*
X428228Y275828D01*
X598091Y223044D02*
G54D11*
D03*
G36*
X409259Y303330D02*
X439259Y303330D01*
X439259Y273330D01*
X409259Y273330D01*
X409259Y303330D01*
G37*
X432197Y29766D02*
G54D11*
D03*
G54D16*
X298450Y332259D02*
X352443Y332259D01*
X353079Y332895D01*
X407848Y332895D01*
X408244Y332498D01*
X426161Y332498D01*
X426641Y332978D01*
X300038Y332581D02*
G54D14*
D03*
X354666Y332423D02*
G54D14*
D03*
X409832Y332423D02*
G54D14*
D03*
X437301Y232013D02*
G54D14*
D03*
X437301Y173673D02*
G54D14*
D03*
X437301Y115332D02*
G54D14*
D03*
X577350Y202306D02*
G54D14*
D03*
X577350Y233262D02*
G54D14*
D03*
X577350Y263821D02*
G54D14*
D03*
G54D13*
X577350Y263821D02*
X577350Y233262D01*
X577350Y202306D01*
X305197Y80566D02*
G54D11*
D03*
X330597Y80566D02*
G54D11*
D03*
X355997Y80566D02*
G54D11*
D03*
G54D13*
X355997Y80566D02*
X436666Y80566D01*
X437301Y81201D01*
G54D13*
X619522Y280987D02*
X619522Y73422D01*
X598884Y52784D01*
X557212Y52784D01*
X511572Y7144D01*
X346075Y7144D01*
X329803Y23416D01*
X329803Y79772D01*
X330597Y80566D01*
G54D17*
X305197Y80566D02*
X305197Y217103D01*
X268450Y253850D01*
G54D13*
X598091Y248443D02*
X598091Y253206D01*
X579438Y271859D01*
X440730Y271859D01*
X424259Y288330D01*
M02*
