%FSLAX34Y34*%
%MOMM*%
%LNSOLDERMASK_BOTTOM*%
G71*
G01*
%ADD10C,2.700*%
%ADD11C,2.500*%
%ADD12C,1.300*%
%ADD13C,2.120*%
%LPD*%
X39850Y304650D02*
G54D10*
D03*
X39850Y279250D02*
G54D10*
D03*
X39850Y253850D02*
G54D10*
D03*
X39850Y228450D02*
G54D10*
D03*
X39850Y203050D02*
G54D10*
D03*
X39850Y177650D02*
G54D10*
D03*
X39850Y152250D02*
G54D10*
D03*
X39850Y126850D02*
G54D10*
D03*
X268450Y304650D02*
G54D10*
D03*
X268450Y279250D02*
G54D11*
D03*
X268450Y253850D02*
G54D11*
D03*
X268450Y228450D02*
G54D10*
D03*
X268450Y203050D02*
G54D10*
D03*
X268450Y177650D02*
G54D10*
D03*
X268450Y152250D02*
G54D10*
D03*
X268450Y126850D02*
G54D10*
D03*
X125016Y355600D02*
G54D11*
D03*
X231378Y355600D02*
G54D11*
D03*
G36*
X406259Y309306D02*
X442259Y309306D01*
X442259Y273306D01*
X406259Y273306D01*
X406259Y309306D01*
G37*
G36*
X550722Y309306D02*
X586722Y309306D01*
X586722Y273306D01*
X550722Y273306D01*
X550722Y309306D01*
G37*
G36*
X550722Y94994D02*
X586722Y94994D01*
X586722Y58994D01*
X550722Y58994D01*
X550722Y94994D01*
G37*
G36*
X406259Y337881D02*
X442259Y337881D01*
X442259Y301881D01*
X406259Y301881D01*
X406259Y337881D01*
G37*
G36*
X550722Y337881D02*
X586722Y337881D01*
X586722Y301881D01*
X550722Y301881D01*
X550722Y337881D01*
G37*
X571897Y357981D02*
G54D12*
D03*
X598091Y96044D02*
G54D10*
D03*
X598091Y121444D02*
G54D10*
D03*
X598091Y146844D02*
G54D10*
D03*
X598091Y172244D02*
G54D10*
D03*
X598091Y197644D02*
G54D10*
D03*
X598091Y223044D02*
G54D10*
D03*
X598091Y248444D02*
G54D10*
D03*
X598091Y273844D02*
G54D10*
D03*
G36*
X550722Y120394D02*
X586722Y120394D01*
X586722Y84394D01*
X550722Y84394D01*
X550722Y120394D01*
G37*
X99616Y355600D02*
G54D11*
D03*
X457597Y29766D02*
G54D10*
D03*
G36*
X50450Y315250D02*
X50450Y294050D01*
X29250Y294050D01*
X29250Y315250D01*
X50450Y315250D01*
G37*
X39850Y279250D02*
G54D13*
D03*
X39850Y253850D02*
G54D13*
D03*
X39850Y228450D02*
G54D13*
D03*
X39850Y203050D02*
G54D13*
D03*
X39850Y177650D02*
G54D13*
D03*
X39850Y152250D02*
G54D13*
D03*
X39850Y126850D02*
G54D13*
D03*
G36*
X279050Y315250D02*
X279050Y294050D01*
X257850Y294050D01*
X257850Y315250D01*
X279050Y315250D01*
G37*
X268450Y279250D02*
G54D13*
D03*
X268450Y253850D02*
G54D13*
D03*
X268450Y228450D02*
G54D13*
D03*
X268450Y203050D02*
G54D13*
D03*
X268450Y177650D02*
G54D13*
D03*
X268450Y152250D02*
G54D13*
D03*
X268450Y126850D02*
G54D13*
D03*
X39850Y279250D02*
G54D12*
D03*
G36*
X608691Y284443D02*
X608691Y263243D01*
X587491Y263243D01*
X587491Y284443D01*
X608691Y284443D01*
G37*
X598091Y248444D02*
G54D13*
D03*
X598091Y223044D02*
G54D13*
D03*
X598091Y197644D02*
G54D13*
D03*
X598091Y172244D02*
G54D13*
D03*
X598091Y146844D02*
G54D13*
D03*
X598091Y121444D02*
G54D13*
D03*
X598091Y96044D02*
G54D13*
D03*
X505619Y371078D02*
G54D12*
D03*
X300038Y275109D02*
G54D12*
D03*
X354666Y275745D02*
G54D12*
D03*
X409832Y275348D02*
G54D12*
D03*
X598091Y223044D02*
G54D10*
D03*
G36*
X406259Y306330D02*
X442259Y306330D01*
X442259Y270330D01*
X406259Y270330D01*
X406259Y306330D01*
G37*
X432197Y29766D02*
G54D10*
D03*
X300038Y332581D02*
G54D12*
D03*
X354666Y332423D02*
G54D12*
D03*
X409832Y332423D02*
G54D12*
D03*
X437301Y232013D02*
G54D12*
D03*
X437301Y173673D02*
G54D12*
D03*
X437301Y115332D02*
G54D12*
D03*
X577350Y202306D02*
G54D12*
D03*
X577350Y233262D02*
G54D12*
D03*
X577350Y263821D02*
G54D12*
D03*
X305197Y80566D02*
G54D10*
D03*
X330597Y80566D02*
G54D10*
D03*
X355997Y80566D02*
G54D10*
D03*
M02*
