%FSLAX34Y34*%
%MOMM*%
%LNSOLDERMASK_TOP*%
G71*
G01*
%ADD10C,2.700*%
%ADD11C,2.500*%
%ADD12C,1.300*%
%ADD13R,1.800X1.800*%
%ADD14R,1.500X2.200*%
%ADD15R,1.900X2.500*%
%ADD16R,2.400X0.900*%
%LPD*%
X39850Y304650D02*
G54D10*
D03*
X39850Y279250D02*
G54D10*
D03*
X39850Y253850D02*
G54D10*
D03*
X39850Y228450D02*
G54D10*
D03*
X39850Y203050D02*
G54D10*
D03*
X39850Y177650D02*
G54D10*
D03*
X39850Y152250D02*
G54D10*
D03*
X39850Y126850D02*
G54D10*
D03*
X268450Y304650D02*
G54D10*
D03*
X268450Y279250D02*
G54D11*
D03*
X268450Y253850D02*
G54D11*
D03*
X268450Y228450D02*
G54D10*
D03*
X268450Y203050D02*
G54D10*
D03*
X268450Y177650D02*
G54D10*
D03*
X268450Y152250D02*
G54D10*
D03*
X268450Y126850D02*
G54D10*
D03*
X125016Y355600D02*
G54D11*
D03*
X231378Y355600D02*
G54D11*
D03*
X571897Y357981D02*
G54D12*
D03*
X598091Y96044D02*
G54D10*
D03*
X598091Y121444D02*
G54D10*
D03*
X598091Y146844D02*
G54D10*
D03*
X598091Y172244D02*
G54D10*
D03*
X598091Y197644D02*
G54D10*
D03*
X598091Y223044D02*
G54D10*
D03*
X598091Y248444D02*
G54D10*
D03*
X598091Y273844D02*
G54D10*
D03*
X103172Y152250D02*
G54D13*
D03*
X75172Y152250D02*
G54D13*
D03*
X103172Y177253D02*
G54D13*
D03*
X75172Y177253D02*
G54D13*
D03*
X99616Y355600D02*
G54D11*
D03*
X457597Y29766D02*
G54D10*
D03*
X568235Y371131D02*
G54D14*
D03*
X530635Y371231D02*
G54D14*
D03*
X563857Y263821D02*
G54D14*
D03*
X526257Y263921D02*
G54D14*
D03*
X39850Y279250D02*
G54D12*
D03*
X505619Y371078D02*
G54D12*
D03*
X354666Y253917D02*
G54D15*
D03*
X381654Y253917D02*
G54D15*
D03*
X381654Y349092D02*
G54D15*
D03*
X354666Y349092D02*
G54D15*
D03*
X300038Y254075D02*
G54D15*
D03*
X327025Y254075D02*
G54D15*
D03*
X327025Y349250D02*
G54D15*
D03*
X300038Y349250D02*
G54D15*
D03*
X195062Y176867D02*
G54D13*
D03*
X167062Y176867D02*
G54D13*
D03*
X195458Y202267D02*
G54D13*
D03*
X167458Y202267D02*
G54D13*
D03*
X559491Y318987D02*
G54D13*
D03*
X531491Y318987D02*
G54D13*
D03*
X559491Y293587D02*
G54D13*
D03*
X531491Y293587D02*
G54D13*
D03*
X195855Y227667D02*
G54D13*
D03*
X167855Y227667D02*
G54D13*
D03*
X300038Y275109D02*
G54D12*
D03*
X354666Y275745D02*
G54D12*
D03*
X409832Y275348D02*
G54D12*
D03*
X598091Y223044D02*
G54D10*
D03*
X432197Y29766D02*
G54D10*
D03*
X559491Y344387D02*
G54D13*
D03*
X531491Y344387D02*
G54D13*
D03*
X409832Y253917D02*
G54D15*
D03*
X436820Y253917D02*
G54D15*
D03*
X436820Y349092D02*
G54D15*
D03*
X409832Y349092D02*
G54D15*
D03*
X300038Y332581D02*
G54D12*
D03*
X354666Y332423D02*
G54D12*
D03*
X409832Y332423D02*
G54D12*
D03*
X437301Y223282D02*
G54D16*
D03*
X437301Y210582D02*
G54D16*
D03*
X437301Y197882D02*
G54D16*
D03*
X437301Y185182D02*
G54D16*
D03*
X491301Y185182D02*
G54D16*
D03*
X491301Y197882D02*
G54D16*
D03*
X491301Y210582D02*
G54D16*
D03*
X491301Y223282D02*
G54D16*
D03*
X437301Y164941D02*
G54D16*
D03*
X437301Y152241D02*
G54D16*
D03*
X437301Y139542D02*
G54D16*
D03*
X437301Y126841D02*
G54D16*
D03*
X491301Y126841D02*
G54D16*
D03*
X491301Y139542D02*
G54D16*
D03*
X491301Y152241D02*
G54D16*
D03*
X491301Y164942D02*
G54D16*
D03*
X437301Y106601D02*
G54D16*
D03*
X437301Y93901D02*
G54D16*
D03*
X437301Y81201D02*
G54D16*
D03*
X437301Y68501D02*
G54D16*
D03*
X491301Y68501D02*
G54D16*
D03*
X491301Y81201D02*
G54D16*
D03*
X491301Y93901D02*
G54D16*
D03*
X491301Y106601D02*
G54D16*
D03*
X103172Y202256D02*
G54D13*
D03*
X75172Y202256D02*
G54D13*
D03*
X437301Y232013D02*
G54D12*
D03*
X437301Y173673D02*
G54D12*
D03*
X437301Y115332D02*
G54D12*
D03*
X563857Y233262D02*
G54D14*
D03*
X526257Y233362D02*
G54D14*
D03*
X563857Y202306D02*
G54D14*
D03*
X526257Y202406D02*
G54D14*
D03*
X577350Y202306D02*
G54D12*
D03*
X577350Y233262D02*
G54D12*
D03*
X577350Y263821D02*
G54D12*
D03*
X305197Y80566D02*
G54D10*
D03*
X330597Y80566D02*
G54D10*
D03*
X355997Y80566D02*
G54D10*
D03*
M02*
