; Drill file
; Format: 2.4 (00.0000)
M48
INCH
T01C0.0118
T02C0.0394
%
G05
G90
T01
X011810Y010830
X013960Y010860
X016140Y010840
X017220Y009130
X017220Y006840
X017220Y004540
X022730Y007960
X022730Y009180
X022730Y010390
X022520Y014090
X019910Y014610
X016140Y013090
X013960Y013090
X011810Y013090
T02
X001570Y004990
X001570Y005990
X001570Y006990
X001570Y007990
X001570Y008990
X001570Y009990
X001570Y010990
X001570Y011990
X003920Y014000
X004920Y014000
X009110Y014000
X010570Y011990
X010570Y010990
X010570Y009990
X010570Y008990
X010570Y007990
X010570Y006990
X010570Y005990
X010570Y004990
X012020Y003170
X013020Y003170
X014020Y003170
X017020Y001170
X018020Y001170
X023550Y003780
X023550Y004780
X023550Y005780
X023550Y006780
X023550Y007780
X023550Y008780
X023550Y009780
X023550Y010780
M30
