%FSLAX34Y34*%
%MOMM*%
%LNCOPPER_TOP*%
G71*
G01*
%ADD10C,2.100*%
%ADD11C,1.900*%
%ADD12C,0.300*%
%ADD13C,0.700*%
%ADD14C,0.500*%
%ADD15R,1.600X1.600*%
%ADD16R,1.300X2.000*%
%ADD17R,1.700X2.300*%
%ADD18R,2.200X0.700*%
%LPD*%
X39850Y304650D02*
G54D10*
D03*
X39850Y279250D02*
G54D10*
D03*
X39850Y253850D02*
G54D10*
D03*
X39850Y228450D02*
G54D10*
D03*
X39850Y203050D02*
G54D10*
D03*
X39850Y177650D02*
G54D10*
D03*
X39850Y152250D02*
G54D10*
D03*
X39850Y126850D02*
G54D10*
D03*
X268450Y304650D02*
G54D10*
D03*
X268450Y279250D02*
G54D11*
D03*
X268450Y253850D02*
G54D11*
D03*
X268450Y228450D02*
G54D10*
D03*
X268450Y203050D02*
G54D10*
D03*
X268450Y177650D02*
G54D10*
D03*
X268450Y152250D02*
G54D10*
D03*
X268450Y126850D02*
G54D10*
D03*
X125016Y355600D02*
G54D11*
D03*
X231378Y355600D02*
G54D11*
D03*
G54D12*
X103172Y152250D02*
X116284Y152400D01*
X125809Y142875D01*
X125809Y46037D01*
X142081Y29766D01*
X396081Y29369D01*
X403225Y36513D01*
X437301Y68501D01*
X571897Y357981D02*
G54D13*
D03*
G54D14*
X505619Y371078D02*
X530635Y371231D01*
G54D14*
X568235Y371131D02*
X571897Y357981D01*
X598091Y96044D02*
G54D10*
D03*
X598091Y121444D02*
G54D10*
D03*
X598091Y146844D02*
G54D10*
D03*
X598091Y172244D02*
G54D10*
D03*
X598091Y197644D02*
G54D10*
D03*
X598091Y223044D02*
G54D10*
D03*
X598091Y248444D02*
G54D10*
D03*
X598091Y273844D02*
G54D10*
D03*
G54D14*
X563857Y263821D02*
X573881Y273844D01*
X598091Y273843D01*
G54D14*
X598091Y223043D02*
X572691Y248444D01*
X538956Y248444D01*
X526257Y261143D01*
X103172Y152250D02*
G54D15*
D03*
X75172Y152250D02*
G54D15*
D03*
X103172Y177253D02*
G54D15*
D03*
X75172Y177253D02*
G54D15*
D03*
G54D14*
X457597Y29766D02*
X440928Y13097D01*
X134938Y13097D01*
X40139Y107862D01*
X39850Y126850D01*
X99616Y355600D02*
G54D11*
D03*
X457597Y29766D02*
G54D10*
D03*
X568235Y371131D02*
G54D16*
D03*
X530635Y371231D02*
G54D16*
D03*
X563857Y263821D02*
G54D16*
D03*
X526257Y263921D02*
G54D16*
D03*
G54D12*
X103172Y177253D02*
X115888Y177403D01*
X130969Y162322D01*
X130969Y48022D01*
X144462Y34528D01*
X388938Y34528D01*
X417909Y63500D01*
X417909Y119856D01*
X425053Y127000D01*
X437301Y126841D01*
X39850Y279250D02*
G54D13*
D03*
X505619Y371078D02*
G54D13*
D03*
X354666Y253917D02*
G54D17*
D03*
X381654Y253917D02*
G54D17*
D03*
X381654Y349092D02*
G54D17*
D03*
X354666Y349092D02*
G54D17*
D03*
X300038Y254075D02*
G54D17*
D03*
X327025Y254075D02*
G54D17*
D03*
X327025Y349250D02*
G54D17*
D03*
X300038Y349250D02*
G54D17*
D03*
G54D12*
X39850Y152250D02*
X75172Y152250D01*
G54D12*
X39850Y177650D02*
X75172Y177650D01*
X195062Y176867D02*
G54D15*
D03*
X167062Y176867D02*
G54D15*
D03*
X195458Y202267D02*
G54D15*
D03*
X167458Y202267D02*
G54D15*
D03*
G54D12*
X167062Y176867D02*
X167062Y201870D01*
X167458Y202267D01*
X559491Y318987D02*
G54D15*
D03*
X531491Y318987D02*
G54D15*
D03*
X559491Y293587D02*
G54D15*
D03*
X531491Y293587D02*
G54D15*
D03*
X195855Y227667D02*
G54D15*
D03*
X167855Y227667D02*
G54D15*
D03*
X300038Y275109D02*
G54D13*
D03*
X354666Y275745D02*
G54D13*
D03*
X409832Y275348D02*
G54D13*
D03*
G54D12*
X300038Y275109D02*
X300038Y253281D01*
G54D12*
X354666Y275745D02*
X354666Y253917D01*
G54D12*
X167458Y202267D02*
X167458Y227270D01*
X167855Y227667D01*
X598091Y223044D02*
G54D10*
D03*
X432197Y29766D02*
G54D10*
D03*
X559491Y344387D02*
G54D15*
D03*
X531491Y344387D02*
G54D15*
D03*
G54D12*
X563857Y293587D02*
X611685Y293587D01*
X622300Y282972D01*
X622300Y171053D01*
X598091Y146843D01*
G54D12*
X563857Y318987D02*
X597000Y318987D01*
X629444Y286544D01*
X629444Y152797D01*
X598091Y121443D01*
G54D12*
X563857Y344387D02*
X581125Y344387D01*
X636984Y288528D01*
X636984Y134937D01*
X598091Y96043D01*
X409832Y253917D02*
G54D17*
D03*
X436820Y253917D02*
G54D17*
D03*
X436820Y349092D02*
G54D17*
D03*
X409832Y349092D02*
G54D17*
D03*
G54D12*
X409832Y275348D02*
X409832Y253917D01*
X300038Y332581D02*
G54D13*
D03*
X354666Y332423D02*
G54D13*
D03*
X409832Y332423D02*
G54D13*
D03*
G54D12*
X300038Y332581D02*
X300038Y349250D01*
G54D12*
X354666Y332423D02*
X354666Y349092D01*
G54D12*
X409832Y332423D02*
X409832Y349092D01*
G54D12*
X436820Y349092D02*
X436820Y332721D01*
X476647Y292894D01*
X535164Y292894D01*
X535857Y293587D01*
G54D12*
X381654Y349092D02*
X381654Y361810D01*
X387350Y367506D01*
X449262Y367506D01*
X498475Y318294D01*
X535164Y318294D01*
X535857Y318987D01*
G54D12*
X535857Y344387D02*
X486272Y344387D01*
X454025Y376634D01*
X354410Y376634D01*
X327025Y349250D01*
X437301Y223282D02*
G54D18*
D03*
X437301Y210582D02*
G54D18*
D03*
X437301Y197882D02*
G54D18*
D03*
X437301Y185182D02*
G54D18*
D03*
X491301Y185182D02*
G54D18*
D03*
X491301Y197882D02*
G54D18*
D03*
X491301Y210582D02*
G54D18*
D03*
X491301Y223282D02*
G54D18*
D03*
X437301Y164941D02*
G54D18*
D03*
X437301Y152241D02*
G54D18*
D03*
X437301Y139542D02*
G54D18*
D03*
X437301Y126841D02*
G54D18*
D03*
X491301Y126841D02*
G54D18*
D03*
X491301Y139542D02*
G54D18*
D03*
X491301Y152241D02*
G54D18*
D03*
X491301Y164942D02*
G54D18*
D03*
X437301Y106601D02*
G54D18*
D03*
X437301Y93901D02*
G54D18*
D03*
X437301Y81201D02*
G54D18*
D03*
X437301Y68501D02*
G54D18*
D03*
X491301Y68501D02*
G54D18*
D03*
X491301Y81201D02*
G54D18*
D03*
X491301Y93901D02*
G54D18*
D03*
X491301Y106601D02*
G54D18*
D03*
X103172Y202256D02*
G54D15*
D03*
X75172Y202256D02*
G54D15*
D03*
G54D12*
X39850Y203050D02*
X74378Y203050D01*
X75172Y202256D01*
G54D12*
X99616Y355600D02*
X99616Y296069D01*
X167855Y227667D01*
G54D12*
X103172Y202256D02*
X110878Y202256D01*
X136128Y177006D01*
X136128Y50403D01*
X146447Y40084D01*
X384572Y40084D01*
X407194Y62706D01*
X407194Y175816D01*
X416322Y184944D01*
X437063Y184944D01*
X437301Y185182D01*
G54D14*
X437301Y223282D02*
X437301Y210582D01*
X437301Y197882D01*
G54D14*
X437301Y164941D02*
X437301Y152241D01*
X437301Y139542D01*
G54D14*
X437301Y106601D02*
X437301Y93901D01*
X437301Y81201D01*
G54D14*
X491301Y68501D02*
X491301Y81201D01*
X491301Y93901D01*
X491301Y106601D01*
G54D14*
X491301Y126841D02*
X491301Y139542D01*
X491301Y152241D01*
X491301Y164942D01*
G54D14*
X491301Y185182D02*
X491301Y197882D01*
X491301Y210582D01*
X491301Y223282D01*
X437301Y232013D02*
G54D13*
D03*
X437301Y173673D02*
G54D13*
D03*
X437301Y115332D02*
G54D13*
D03*
G54D14*
X437301Y232013D02*
X437301Y210582D01*
G54D14*
X437301Y173673D02*
X437301Y164941D01*
G54D14*
X437301Y115332D02*
X437301Y106601D01*
G54D14*
X598091Y197643D02*
X577850Y218281D01*
X538956Y217884D01*
X526257Y230584D01*
X563857Y233262D02*
G54D16*
D03*
X526257Y233362D02*
G54D16*
D03*
G54D14*
X598091Y172243D02*
X583406Y186928D01*
X538956Y186928D01*
X526257Y199628D01*
X563857Y202306D02*
G54D16*
D03*
X526257Y202406D02*
G54D16*
D03*
X577350Y202306D02*
G54D13*
D03*
X577350Y233262D02*
G54D13*
D03*
X577350Y263821D02*
G54D13*
D03*
G54D14*
X563857Y263821D02*
X577350Y263821D01*
G54D14*
X577350Y233262D02*
X563857Y233262D01*
G54D14*
X577350Y202306D02*
X563857Y202306D01*
G54D14*
X526257Y202406D02*
X526257Y109935D01*
X510381Y94059D01*
X491460Y94059D01*
X491301Y93901D01*
G54D14*
X526257Y233362D02*
X526257Y231379D01*
X512762Y217884D01*
X512762Y160337D01*
X504825Y152400D01*
X491460Y152400D01*
X491301Y152241D01*
G54D14*
X491301Y223282D02*
X491301Y244445D01*
X509984Y263128D01*
X525463Y263128D01*
X526257Y263921D01*
G54D12*
X327025Y254075D02*
X327025Y236141D01*
X319881Y228997D01*
X268997Y228997D01*
X268450Y228450D01*
G54D12*
X381654Y253917D02*
X381654Y236795D01*
X367506Y222647D01*
X288047Y222647D01*
X268450Y203050D01*
G54D12*
X436820Y253917D02*
X436820Y250685D01*
X399653Y213519D01*
X304319Y213519D01*
X268450Y177650D01*
G54D12*
X268450Y228450D02*
X196638Y228450D01*
X195855Y227667D01*
G54D12*
X268450Y203050D02*
X196241Y203050D01*
X195458Y202267D01*
G54D12*
X268450Y177650D02*
X195845Y177650D01*
X195062Y176867D01*
X305197Y80566D02*
G54D10*
D03*
X330597Y80566D02*
G54D10*
D03*
X355997Y80566D02*
G54D10*
D03*
M02*
