%FSLAX34Y34*%
%MOMM*%
%LNSILK_TOP*%
G71*
G01*
%ADD10C,0.111*%
%ADD11C,0.200*%
%ADD12C,0.150*%
%ADD13C,0.160*%
%ADD14C,0.100*%
%ADD15C,0.270*%
%ADD16C,1.000*%
%ADD17C,0.144*%
%LPD*%
G54D10*
X212679Y248873D02*
X213345Y247762D01*
X214679Y247206D01*
X216012Y247206D01*
X217345Y247762D01*
X218012Y248873D01*
X218012Y249984D01*
X217345Y251095D01*
X216012Y251651D01*
X214679Y251651D01*
X213345Y252206D01*
X212679Y253318D01*
X212679Y254429D01*
X213345Y255540D01*
X214679Y256095D01*
X216012Y256095D01*
X217345Y255540D01*
X218012Y254429D01*
G54D10*
X225789Y248873D02*
X225122Y247762D01*
X223789Y247206D01*
X222456Y247206D01*
X221122Y247762D01*
X220456Y248873D01*
X220456Y254429D01*
X221122Y255540D01*
X222456Y256095D01*
X223789Y256095D01*
X225122Y255540D01*
X225789Y254429D01*
G54D10*
X228233Y256095D02*
X228233Y247206D01*
X232899Y247206D01*
G54D10*
X210733Y223313D02*
X211399Y222202D01*
X212733Y221647D01*
X214066Y221647D01*
X215399Y222202D01*
X216066Y223313D01*
X216066Y224424D01*
X215399Y225535D01*
X214066Y226091D01*
X212733Y226091D01*
X211399Y226647D01*
X210733Y227758D01*
X210733Y228869D01*
X211399Y229980D01*
X212733Y230535D01*
X214066Y230535D01*
X215399Y229980D01*
X216066Y228869D01*
G54D10*
X218510Y221647D02*
X218510Y230535D01*
X221843Y230535D01*
X223176Y229980D01*
X223843Y228869D01*
X223843Y223313D01*
X223176Y222202D01*
X221843Y221647D01*
X218510Y221647D01*
G54D10*
X226287Y221647D02*
X229620Y230535D01*
X232953Y221647D01*
G54D10*
X227620Y224980D02*
X231620Y224980D01*
G54D11*
G75*
G01X39850Y101450D02*
G03X27150Y114150I-12700J0D01*
G01*
G54D11*
X39850Y101450D02*
X39850Y50650D01*
X281150Y50650D01*
X281150Y380850D01*
X27150Y380850D01*
X27150Y114150D01*
G54D10*
X61567Y302744D02*
X63567Y301633D01*
X64233Y300522D01*
X64233Y298300D01*
G54D10*
X58900Y298300D02*
X58900Y307189D01*
X62233Y307189D01*
X63567Y306633D01*
X64233Y305522D01*
X64233Y304411D01*
X63567Y303300D01*
X62233Y302744D01*
X58900Y302744D01*
G54D10*
X66677Y299967D02*
X67344Y298856D01*
X68677Y298300D01*
X70010Y298300D01*
X71344Y298856D01*
X72010Y299967D01*
X72010Y301078D01*
X71344Y302189D01*
X70010Y302744D01*
X68677Y302744D01*
X67344Y303300D01*
X66677Y304411D01*
X66677Y305522D01*
X67344Y306633D01*
X68677Y307189D01*
X70010Y307189D01*
X71344Y306633D01*
X72010Y305522D01*
G54D10*
X77121Y298300D02*
X77121Y307189D01*
G54D10*
X74454Y307189D02*
X79787Y307189D01*
G54D10*
X58900Y272900D02*
X62233Y281789D01*
X65567Y272900D01*
G54D10*
X60233Y276233D02*
X64233Y276233D01*
G54D10*
X73344Y280122D02*
X73344Y274567D01*
X72678Y273456D01*
X71344Y272900D01*
X70011Y272900D01*
X68678Y273456D01*
X68011Y274567D01*
X68011Y280122D01*
X68678Y281233D01*
X70011Y281789D01*
X71344Y281789D01*
X72678Y281233D01*
X73344Y280122D01*
G54D10*
X58900Y247500D02*
X58900Y256389D01*
X62233Y256389D01*
X63567Y255833D01*
X64233Y254722D01*
X64233Y249167D01*
X63567Y248056D01*
X62233Y247500D01*
X58900Y247500D01*
G54D10*
X72010Y254722D02*
X72010Y249167D01*
X71344Y248056D01*
X70010Y247500D01*
X68677Y247500D01*
X67344Y248056D01*
X66677Y249167D01*
X66677Y254722D01*
X67344Y255833D01*
X68677Y256389D01*
X70010Y256389D01*
X71344Y255833D01*
X72010Y254722D01*
G54D10*
X58900Y222100D02*
X58900Y230989D01*
X62233Y230989D01*
X63567Y230433D01*
X64233Y229322D01*
X64233Y223767D01*
X63567Y222656D01*
X62233Y222100D01*
X58900Y222100D01*
G54D10*
X72010Y230989D02*
X66677Y230989D01*
X66677Y227100D01*
X67344Y227100D01*
X68677Y227656D01*
X70010Y227656D01*
X71344Y227100D01*
X72010Y225989D01*
X72010Y223767D01*
X71344Y222656D01*
X70010Y222100D01*
X68677Y222100D01*
X67344Y222656D01*
X66677Y223767D01*
G54D10*
X58900Y196700D02*
X58900Y205589D01*
X62233Y205589D01*
X63567Y205033D01*
X64233Y203922D01*
X64233Y198367D01*
X63567Y197256D01*
X62233Y196700D01*
X58900Y196700D01*
G54D10*
X72010Y203922D02*
X71344Y205033D01*
X70010Y205589D01*
X68677Y205589D01*
X67344Y205033D01*
X66677Y203922D01*
X66677Y201144D01*
X66677Y200589D01*
X68677Y201700D01*
X70010Y201700D01*
X71344Y201144D01*
X72010Y200033D01*
X72010Y198367D01*
X71344Y197256D01*
X70010Y196700D01*
X68677Y196700D01*
X67344Y197256D01*
X66677Y198367D01*
X66677Y201144D01*
G54D10*
X58900Y171300D02*
X58900Y180189D01*
X62233Y180189D01*
X63567Y179633D01*
X64233Y178522D01*
X64233Y172967D01*
X63567Y171856D01*
X62233Y171300D01*
X58900Y171300D01*
G54D10*
X66677Y180189D02*
X72010Y180189D01*
X71344Y179078D01*
X70010Y177411D01*
X68677Y175189D01*
X68010Y173522D01*
X68010Y171300D01*
G54D10*
X58900Y145900D02*
X58900Y154789D01*
X62233Y154789D01*
X63567Y154233D01*
X64233Y153122D01*
X64233Y147567D01*
X63567Y146456D01*
X62233Y145900D01*
X58900Y145900D01*
G54D10*
X70010Y150344D02*
X68677Y150344D01*
X67344Y150900D01*
X66677Y152011D01*
X66677Y153122D01*
X67344Y154233D01*
X68677Y154789D01*
X70010Y154789D01*
X71344Y154233D01*
X72010Y153122D01*
X72010Y152011D01*
X71344Y150900D01*
X70010Y150344D01*
X71344Y149789D01*
X72010Y148678D01*
X72010Y147567D01*
X71344Y146456D01*
X70010Y145900D01*
X68677Y145900D01*
X67344Y146456D01*
X66677Y147567D01*
X66677Y148678D01*
X67344Y149789D01*
X68677Y150344D01*
G54D10*
X58900Y127722D02*
X59567Y128833D01*
X60900Y129389D01*
X62233Y129389D01*
X63567Y128833D01*
X64233Y127722D01*
X64233Y126611D01*
X63567Y125500D01*
X62233Y124944D01*
X63567Y124389D01*
X64233Y123278D01*
X64233Y122167D01*
X63567Y121056D01*
X62233Y120500D01*
X60900Y120500D01*
X59567Y121056D01*
X58900Y122167D01*
G54D10*
X66677Y129389D02*
X70010Y120500D01*
X73344Y129389D01*
G54D10*
X75788Y127722D02*
X76455Y128833D01*
X77788Y129389D01*
X79121Y129389D01*
X80455Y128833D01*
X81121Y127722D01*
X81121Y126611D01*
X80455Y125500D01*
X79121Y124944D01*
X80455Y124389D01*
X81121Y123278D01*
X81121Y122167D01*
X80455Y121056D01*
X79121Y120500D01*
X77788Y120500D01*
X76455Y121056D01*
X75788Y122167D01*
G54D10*
X239367Y298300D02*
X239367Y307189D01*
G54D10*
X236700Y307189D02*
X242033Y307189D01*
G54D10*
X244477Y307189D02*
X251144Y298300D01*
G54D10*
X244477Y298300D02*
X251144Y307189D01*
G54D10*
X239367Y277344D02*
X241367Y276233D01*
X242033Y275122D01*
X242033Y272900D01*
G54D10*
X236700Y272900D02*
X236700Y281789D01*
X240033Y281789D01*
X241367Y281233D01*
X242033Y280122D01*
X242033Y279011D01*
X241367Y277900D01*
X240033Y277344D01*
X236700Y277344D01*
G54D10*
X244477Y281789D02*
X251144Y272900D01*
G54D10*
X244477Y272900D02*
X251144Y281789D01*
G54D10*
X236700Y247500D02*
X236700Y256389D01*
X240033Y256389D01*
X241367Y255833D01*
X242033Y254722D01*
X242033Y249167D01*
X241367Y248056D01*
X240033Y247500D01*
X236700Y247500D01*
G54D10*
X244477Y253056D02*
X247810Y256389D01*
X247810Y247500D01*
G54D10*
X236700Y222100D02*
X236700Y230989D01*
X240033Y230989D01*
X241367Y230433D01*
X242033Y229322D01*
X242033Y223767D01*
X241367Y222656D01*
X240033Y222100D01*
X236700Y222100D01*
G54D10*
X249810Y222100D02*
X244477Y222100D01*
X244477Y222656D01*
X245144Y223767D01*
X249144Y227100D01*
X249810Y228211D01*
X249810Y229322D01*
X249144Y230433D01*
X247810Y230989D01*
X246477Y230989D01*
X245144Y230433D01*
X244477Y229322D01*
G54D10*
X236700Y196700D02*
X236700Y205589D01*
X240033Y205589D01*
X241367Y205033D01*
X242033Y203922D01*
X242033Y198367D01*
X241367Y197256D01*
X240033Y196700D01*
X236700Y196700D01*
G54D10*
X244477Y203922D02*
X245144Y205033D01*
X246477Y205589D01*
X247810Y205589D01*
X249144Y205033D01*
X249810Y203922D01*
X249810Y202811D01*
X249144Y201700D01*
X247810Y201144D01*
X249144Y200589D01*
X249810Y199478D01*
X249810Y198367D01*
X249144Y197256D01*
X247810Y196700D01*
X246477Y196700D01*
X245144Y197256D01*
X244477Y198367D01*
G54D10*
X236700Y171300D02*
X236700Y180189D01*
X240033Y180189D01*
X241367Y179633D01*
X242033Y178522D01*
X242033Y172967D01*
X241367Y171856D01*
X240033Y171300D01*
X236700Y171300D01*
G54D10*
X248477Y171300D02*
X248477Y180189D01*
X244477Y174633D01*
X244477Y173522D01*
X249810Y173522D01*
G54D10*
X239367Y150344D02*
X242033Y150344D01*
X242033Y147567D01*
X241367Y146456D01*
X240033Y145900D01*
X238700Y145900D01*
X237367Y146456D01*
X236700Y147567D01*
X236700Y153122D01*
X237367Y154233D01*
X238700Y154789D01*
X240033Y154789D01*
X241367Y154233D01*
X242033Y153122D01*
G54D10*
X244477Y145900D02*
X244477Y154789D01*
X249810Y145900D01*
X249810Y154789D01*
G54D10*
X252254Y145900D02*
X252254Y154789D01*
X255587Y154789D01*
X256921Y154233D01*
X257587Y153122D01*
X257587Y147567D01*
X256921Y146456D01*
X255587Y145900D01*
X252254Y145900D01*
G54D10*
X242033Y129389D02*
X236700Y129389D01*
X236700Y125500D01*
X237367Y125500D01*
X238700Y126056D01*
X240033Y126056D01*
X241367Y125500D01*
X242033Y124389D01*
X242033Y122167D01*
X241367Y121056D01*
X240033Y120500D01*
X238700Y120500D01*
X237367Y121056D01*
X236700Y122167D01*
G54D10*
X244477Y129389D02*
X247810Y120500D01*
X251144Y129389D01*
G54D12*
G75*
G01X269038Y61119D02*
G03X269038Y61119I-750J0D01*
G01*
G54D12*
G75*
G01X271438Y61119D02*
G03X271438Y61119I-3150J0D01*
G01*
G54D12*
X265112Y61119D02*
X252412Y61119D01*
X249238Y92869D01*
X270669Y92869D01*
X268288Y64294D01*
G54D12*
X254000Y61119D02*
X254000Y57944D01*
X256381Y57944D01*
X256381Y61119D01*
G54D12*
X270669Y85725D02*
X272256Y85725D01*
X272256Y82550D01*
X269875Y82550D01*
G54D13*
G75*
G01X270504Y92964D02*
G03X249372Y92964I-10566J-16270D01*
G01*
G54D12*
X257175Y96044D02*
X257175Y97631D01*
X262731Y97631D01*
X262731Y96044D01*
G54D12*
X251619Y94456D02*
X251619Y97631D01*
X253206Y97631D01*
X253206Y95250D01*
G54D12*
X257969Y82550D02*
X257969Y84137D01*
X262731Y84137D01*
X262731Y82550D01*
X257969Y82550D01*
G54D12*
X244475Y94456D02*
X276225Y59531D01*
G54D12*
X244475Y59531D02*
X276225Y94456D01*
G54D10*
X220266Y341470D02*
X223599Y332581D01*
X226932Y341470D01*
G54D10*
X234710Y334248D02*
X234043Y333137D01*
X232710Y332581D01*
X231377Y332581D01*
X230043Y333137D01*
X229377Y334248D01*
X229377Y339803D01*
X230043Y340915D01*
X231377Y341470D01*
X232710Y341470D01*
X234043Y340915D01*
X234710Y339803D01*
G54D10*
X242487Y334248D02*
X241820Y333137D01*
X240487Y332581D01*
X239154Y332581D01*
X237820Y333137D01*
X237154Y334248D01*
X237154Y339803D01*
X237820Y340915D01*
X239154Y341470D01*
X240487Y341470D01*
X241820Y340915D01*
X242487Y339803D01*
G54D10*
X117760Y335041D02*
X120427Y335041D01*
X120427Y332264D01*
X119760Y331152D01*
X118427Y330597D01*
X117094Y330597D01*
X115760Y331152D01*
X115094Y332264D01*
X115094Y337819D01*
X115760Y338930D01*
X117094Y339486D01*
X118427Y339486D01*
X119760Y338930D01*
X120427Y337819D01*
G54D10*
X122871Y330597D02*
X122871Y339486D01*
X128204Y330597D01*
X128204Y339486D01*
G54D10*
X130648Y330597D02*
X130648Y339486D01*
X133981Y339486D01*
X135314Y338930D01*
X135981Y337819D01*
X135981Y332264D01*
X135314Y331152D01*
X133981Y330597D01*
X130648Y330597D01*
G54D12*
X114172Y163250D02*
X114172Y141250D01*
X64172Y141250D01*
X64172Y163250D01*
X114172Y163250D01*
G54D12*
X114172Y188253D02*
X114172Y166253D01*
X64172Y166253D01*
X64172Y188253D01*
X114172Y188253D01*
G54D12*
X566635Y364231D02*
X566635Y378231D01*
X531635Y378231D01*
X531635Y364231D01*
X566635Y364231D01*
G36*
X566635Y364231D02*
X566635Y378231D01*
X556635Y378231D01*
X556635Y364231D01*
X566635Y364231D01*
G37*
G54D14*
X566635Y364231D02*
X566635Y378231D01*
X556635Y378231D01*
X556635Y364231D01*
X566635Y364231D01*
G54D12*
X562257Y256921D02*
X562257Y270921D01*
X527257Y270921D01*
X527257Y256921D01*
X562257Y256921D01*
G36*
X562257Y256921D02*
X562257Y270921D01*
X552257Y270921D01*
X552257Y256921D01*
X562257Y256921D01*
G37*
G54D14*
X562257Y256921D02*
X562257Y270921D01*
X552257Y270921D01*
X552257Y256921D01*
X562257Y256921D01*
G54D15*
X113903Y416749D02*
X113903Y401637D01*
X119570Y411082D01*
X125236Y401637D01*
X125236Y416749D01*
G54D15*
X137325Y403904D02*
X137325Y407682D01*
X136192Y409571D01*
X133925Y410137D01*
X131658Y409571D01*
X130525Y407682D01*
X130525Y403904D01*
X131658Y402015D01*
X133925Y401637D01*
X136192Y402015D01*
X137325Y403904D01*
G54D15*
X142614Y401637D02*
X142614Y416749D01*
X148281Y407304D01*
X153947Y416749D01*
X153947Y401637D01*
G54D15*
X166036Y403904D02*
X166036Y407682D01*
X164903Y409571D01*
X162636Y410137D01*
X160369Y409571D01*
X159236Y407682D01*
X159236Y403904D01*
X160369Y402015D01*
X162636Y401637D01*
X164903Y402015D01*
X166036Y403904D01*
G54D15*
X180392Y404471D02*
X179258Y402582D01*
X176992Y401637D01*
X174725Y401637D01*
X172458Y402582D01*
X171325Y404471D01*
X171325Y413915D01*
X172458Y415804D01*
X174725Y416749D01*
X176992Y416749D01*
X179258Y415804D01*
X180392Y413915D01*
G54D15*
X192481Y403904D02*
X192481Y407682D01*
X191348Y409571D01*
X189081Y410137D01*
X186814Y409571D01*
X185681Y407682D01*
X185681Y403904D01*
X186814Y402015D01*
X189081Y401637D01*
X191348Y402015D01*
X192481Y403904D01*
G54D15*
X197770Y401637D02*
X197770Y410137D01*
G54D15*
X197770Y408249D02*
X198903Y409571D01*
X201170Y410137D01*
X203437Y409571D01*
X204570Y408249D01*
X204570Y401637D01*
G54D15*
X212126Y416749D02*
X212126Y402582D01*
X213259Y401637D01*
X214392Y402015D01*
G54D15*
X209859Y410137D02*
X214392Y410137D01*
G54D15*
X219681Y401637D02*
X219681Y410137D01*
G54D15*
X219681Y408249D02*
X221948Y410137D01*
X224214Y410137D01*
G54D15*
X236303Y403904D02*
X236303Y407682D01*
X235170Y409571D01*
X232903Y410137D01*
X230636Y409571D01*
X229503Y407682D01*
X229503Y403904D01*
X230636Y402015D01*
X232903Y401637D01*
X235170Y402015D01*
X236303Y403904D01*
G54D15*
X241592Y401637D02*
X241592Y416749D01*
G54D15*
X252397Y411082D02*
X258064Y416749D01*
X258064Y401637D01*
G54D15*
X263353Y401637D02*
X263353Y401637D01*
G54D15*
X277709Y413915D02*
X277709Y404471D01*
X276575Y402582D01*
X274309Y401637D01*
X272042Y401637D01*
X269775Y402582D01*
X268642Y404471D01*
X268642Y413915D01*
X269775Y415804D01*
X272042Y416749D01*
X274309Y416749D01*
X276575Y415804D01*
X277709Y413915D01*
G54D12*
X27150Y317350D02*
X52550Y317350D01*
X52550Y114150D01*
X27150Y114150D01*
X27150Y317350D01*
G54D12*
X255750Y317350D02*
X281150Y317350D01*
X281150Y114150D01*
X255750Y114150D01*
X255750Y317350D01*
G54D12*
X585391Y286543D02*
X610791Y286543D01*
X610791Y83343D01*
X585391Y83343D01*
X585391Y286543D01*
G54D12*
X342110Y331505D02*
X342110Y271505D01*
X393210Y271505D01*
X393210Y331505D01*
X342110Y331505D01*
X382051Y320120D02*
G54D16*
D03*
G54D12*
X287481Y331662D02*
X287481Y271662D01*
X338581Y271662D01*
X338581Y331662D01*
X287481Y331662D01*
X327422Y320278D02*
G54D16*
D03*
G54D17*
X345832Y347750D02*
X345832Y347750D01*
G54D12*
X206062Y187867D02*
X206062Y165867D01*
X156062Y165867D01*
X156062Y187867D01*
X206062Y187867D01*
G54D12*
X206458Y213267D02*
X206458Y191267D01*
X156458Y191267D01*
X156458Y213267D01*
X206458Y213267D01*
G54D12*
X570491Y329987D02*
X570491Y307987D01*
X520491Y307987D01*
X520491Y329987D01*
X570491Y329987D01*
G54D12*
X570491Y304587D02*
X570491Y282587D01*
X520491Y282587D01*
X520491Y304587D01*
X570491Y304587D01*
G54D12*
X206855Y238667D02*
X206855Y216667D01*
X156855Y216667D01*
X156855Y238667D01*
X206855Y238667D01*
G54D10*
X83903Y336478D02*
X84570Y337590D01*
X85903Y338145D01*
X87236Y338145D01*
X88570Y337590D01*
X89236Y336478D01*
X89236Y335367D01*
X88570Y334256D01*
X87236Y333701D01*
X88570Y333145D01*
X89236Y332034D01*
X89236Y330923D01*
X88570Y329812D01*
X87236Y329256D01*
X85903Y329256D01*
X84570Y329812D01*
X83903Y330923D01*
G54D10*
X91680Y338145D02*
X95013Y329256D01*
X98347Y338145D01*
G54D10*
X100791Y336478D02*
X101458Y337590D01*
X102791Y338145D01*
X104124Y338145D01*
X105458Y337590D01*
X106124Y336478D01*
X106124Y335367D01*
X105458Y334256D01*
X104124Y333701D01*
X105458Y333145D01*
X106124Y332034D01*
X106124Y330923D01*
X105458Y329812D01*
X104124Y329256D01*
X102791Y329256D01*
X101458Y329812D01*
X100791Y330923D01*
G54D10*
X398910Y30488D02*
X401577Y30488D01*
X401577Y27710D01*
X400910Y26599D01*
X399577Y26044D01*
X398244Y26044D01*
X396910Y26599D01*
X396244Y27710D01*
X396244Y33266D01*
X396910Y34377D01*
X398244Y34933D01*
X399577Y34933D01*
X400910Y34377D01*
X401577Y33266D01*
G54D10*
X404021Y26044D02*
X404021Y34933D01*
X409354Y26044D01*
X409354Y34933D01*
G54D10*
X411798Y26044D02*
X411798Y34933D01*
X415131Y34933D01*
X416464Y34377D01*
X417131Y33266D01*
X417131Y27710D01*
X416464Y26599D01*
X415131Y26044D01*
X411798Y26044D01*
G54D12*
X570491Y355387D02*
X570491Y333387D01*
X520491Y333387D01*
X520491Y355387D01*
X570491Y355387D01*
G54D12*
X397276Y331505D02*
X397276Y271505D01*
X448376Y271505D01*
X448376Y331505D01*
X397276Y331505D01*
X437216Y320120D02*
G54D16*
D03*
G54D12*
X475301Y230282D02*
X452301Y230282D01*
X452301Y179182D01*
X475301Y179182D01*
X475301Y230282D01*
G54D12*
X470301Y230282D02*
X457301Y230282D01*
X457301Y225282D01*
X470301Y225282D01*
X470301Y230282D01*
G54D12*
X475301Y171941D02*
X452301Y171942D01*
X452301Y120841D01*
X475301Y120842D01*
X475301Y171941D01*
G54D12*
X470301Y171941D02*
X457301Y171941D01*
X457301Y166941D01*
X470301Y166941D01*
X470301Y171941D01*
G54D12*
X475301Y113601D02*
X452301Y113601D01*
X452301Y62501D01*
X475301Y62501D01*
X475301Y113601D01*
G54D12*
X470301Y113601D02*
X457301Y113601D01*
X457301Y108601D01*
X470301Y108601D01*
X470301Y113601D01*
G54D12*
X114172Y213256D02*
X114172Y191256D01*
X64172Y191256D01*
X64172Y213256D01*
X114172Y213256D01*
G54D12*
X562257Y226362D02*
X562257Y240362D01*
X527257Y240362D01*
X527257Y226362D01*
X562257Y226362D01*
G36*
X562257Y226362D02*
X562257Y240362D01*
X552257Y240362D01*
X552257Y226362D01*
X562257Y226362D01*
G37*
G54D14*
X562257Y226362D02*
X562257Y240362D01*
X552257Y240362D01*
X552257Y226362D01*
X562257Y226362D01*
G54D12*
X562257Y195406D02*
X562257Y209406D01*
X527257Y209406D01*
X527257Y195406D01*
X562257Y195406D01*
G36*
X562257Y195406D02*
X562257Y209406D01*
X552257Y209406D01*
X552257Y195406D01*
X562257Y195406D01*
G37*
G54D14*
X562257Y195406D02*
X562257Y209406D01*
X552257Y209406D01*
X552257Y195406D01*
X562257Y195406D01*
G54D10*
X478794Y32869D02*
X479460Y33980D01*
X480794Y34536D01*
X482127Y34536D01*
X483460Y33980D01*
X484127Y32869D01*
X484127Y31758D01*
X483460Y30647D01*
X482127Y30091D01*
X483460Y29536D01*
X484127Y28425D01*
X484127Y27314D01*
X483460Y26202D01*
X482127Y25647D01*
X480794Y25647D01*
X479460Y26202D01*
X478794Y27314D01*
G54D10*
X486571Y34536D02*
X489904Y25647D01*
X493237Y34536D01*
G54D10*
X495682Y32869D02*
X496348Y33980D01*
X497682Y34536D01*
X499015Y34536D01*
X500348Y33980D01*
X501015Y32869D01*
X501015Y31758D01*
X500348Y30647D01*
X499015Y30091D01*
X500348Y29536D01*
X501015Y28425D01*
X501015Y27314D01*
X500348Y26202D01*
X499015Y25647D01*
X497682Y25647D01*
X496348Y26202D01*
X495682Y27314D01*
G54D10*
X356791Y98933D02*
X356791Y101600D01*
X359568Y101600D01*
X360680Y100933D01*
X361235Y99600D01*
X361235Y98267D01*
X360680Y96933D01*
X359568Y96267D01*
X354013Y96267D01*
X352902Y96933D01*
X352346Y98267D01*
X352346Y99600D01*
X352902Y100933D01*
X354013Y101600D01*
G54D10*
X361235Y104044D02*
X352346Y104044D01*
X361235Y109377D01*
X352346Y109377D01*
G54D10*
X361235Y111821D02*
X352346Y111821D01*
X352346Y115154D01*
X352902Y116487D01*
X354013Y117154D01*
X359568Y117154D01*
X360680Y116487D01*
X361235Y115154D01*
X361235Y111821D01*
G54D10*
X326549Y95870D02*
X335438Y99203D01*
X326549Y102536D01*
G54D10*
X333772Y110314D02*
X334883Y109647D01*
X335438Y108314D01*
X335438Y106981D01*
X334883Y105647D01*
X333772Y104981D01*
X328216Y104981D01*
X327105Y105647D01*
X326549Y106981D01*
X326549Y108314D01*
X327105Y109647D01*
X328216Y110314D01*
G54D10*
X333772Y118091D02*
X334883Y117424D01*
X335438Y116091D01*
X335438Y114758D01*
X334883Y113424D01*
X333772Y112758D01*
X328216Y112758D01*
X327105Y113424D01*
X326549Y114758D01*
X326549Y116091D01*
X327105Y117424D01*
X328216Y118091D01*
G54D10*
X310435Y97060D02*
X301546Y97060D01*
X301546Y100394D01*
X302102Y101727D01*
X303213Y102394D01*
X308768Y102394D01*
X309880Y101727D01*
X310435Y100394D01*
X310435Y97060D01*
G54D10*
X309102Y108837D02*
X306880Y108837D01*
X305768Y108171D01*
X305435Y106837D01*
X305768Y105504D01*
X306880Y104837D01*
X309102Y104837D01*
X310213Y105504D01*
X310435Y106837D01*
X310213Y108171D01*
X309102Y108837D01*
G54D10*
X305435Y115281D02*
X310435Y115281D01*
G54D10*
X309324Y115281D02*
X310213Y114615D01*
X310435Y113281D01*
X310213Y111948D01*
X309324Y111281D01*
X305435Y111281D01*
G54D10*
X301546Y119059D02*
X309880Y119059D01*
X310435Y119725D01*
X310213Y120392D01*
G54D10*
X305435Y117725D02*
X305435Y120392D01*
M02*
